<?xml version="1.0" encoding="iso-8859-1"?>
<!-- Generator: Adobe Illustrator 19.2.0, SVG Export Plug-In . SVG Version: 6.00 Build 0)  -->
<svg version="1.1" id="Layer_1" xmlns="http://www.w3.org/2000/svg" xmlns:xlink="http://www.w3.org/1999/xlink" x="0px" y="0px"
	 viewBox="0 0 40 40" enable-background="new 0 0 40 40" xml:space="preserve">
<path fill="#F78F8F" d="M20,38.5C9.799,38.5,1.5,30.201,1.5,20S9.799,1.5,20,1.5S38.5,9.799,38.5,20S30.201,38.5,20,38.5z"/>
<path fill="#C74343" d="M20,2c9.925,0,18,8.075,18,18s-8.075,18-18,18S2,29.925,2,20S10.075,2,20,2 M20,1C9.507,1,1,9.507,1,20
	s8.507,19,19,19s19-8.507,19-19S30.493,1,20,1L20,1z"/>
<path fill="#FFCACA" d="M17,2.27v35.46c0.978,0.164,1.976,0.27,3,0.27s2.022-0.106,3-0.27V2.27C22.022,2.106,21.024,2,20,2
	S17.978,2.106,17,2.27z"/>
<path fill="#FFCACA" d="M3.144,13.732l30.726,17.74c1.273-1.538,2.277-3.299,2.986-5.204L6.13,8.528
	C4.857,10.066,3.853,11.827,3.144,13.732z"/>
<path fill="#FFCACA" d="M3.144,26.268c0.709,1.905,1.713,3.667,2.986,5.204l30.725-17.739c-0.709-1.905-1.713-3.667-2.986-5.204
	L3.144,26.268z"/>
<path fill="#F78F8F" d="M20,31.5c-6.341,0-11.5-5.159-11.5-11.5S13.659,8.5,20,8.5S31.5,13.659,31.5,20S26.341,31.5,20,31.5z"/>
<path fill="#C74343" d="M20,11c4.963,0,9,4.037,9,9s-4.037,9-9,9s-9-4.037-9-9S15.037,11,20,11 M20,6C12.268,6,6,12.268,6,20
	s6.268,14,14,14s14-6.268,14-14S27.732,6,20,6L20,6z"/>
<g>
	<circle fill="none" stroke="#FFFFFF" stroke-miterlimit="10" stroke-dasharray="2.0639,3.0959" cx="20" cy="20" r="11.5"/>
</g>
</svg>
